<svg xmlns="http://www.w3.org/2000/svg" viewBox="0 0 128.77 181.44"><defs><style>.cls-1{fill:#fff;}</style></defs><title>Asset 7</title><g id="Layer_2" data-name="Layer 2"><g id="图层_1" data-name="图层 1"><path class="cls-1" d="M46.31,111.9,38.48,95.12a13.35,13.35,0,0,1,24.2-11.29l7.82,16.79-7.41,3.45L55.27,87.29a5.17,5.17,0,0,0-9.37,4.37l7.83,16.78Z"/><path class="cls-1" d="M61.78,101.28,56.57,90.09a13.35,13.35,0,1,1,24.2-11.28l7.82,16.77-7.41,3.47L73.35,82.27A5.16,5.16,0,1,0,64,86.63L69.2,97.82Z"/><path class="cls-1" d="M65.12,181.44c-2.2-4.71-5.73-6.24-12.87-9-7.56-2.9-17.91-6.88-30-18.32C9,141.55,2.6,134,1.92,133.2L0,130.9l1.6-2.52c.32-.51,8-12.38,20.43-10,3.53.68,6.63,3,9.43,5.5L2.14,61A13.35,13.35,0,0,1,18.81,42.81a13.27,13.27,0,0,1,7.53,6.9l27.39,58.73-7.42,3.46L18.92,53.17a5.16,5.16,0,1,0-9.36,4.36l37.16,79.7-4.39,1.43a8.6,8.6,0,0,1-4.78.24c-3.2-.91-6-3.62-9-6.5-2.69-2.6-5.73-5.55-8.09-6-4.41-.84-8,1.92-10.09,4.07,3.35,3.71,9.3,9.95,17.5,17.72,10.9,10.32,20,13.82,27.28,16.62S68.85,170.07,72.54,178Z"/><path class="cls-1" d="M115.57,156.66c-1.09-2.34-1.68-6.32-2.57-12.35-2.15-14.64-5.76-39.15-19.76-60.34-3.13-4.73-5.39-3.88-6.36-3.52A9.55,9.55,0,0,0,82.11,85L74.6,81.72A17.49,17.49,0,0,1,84,72.79c3.48-1.3,10.21-2.18,16.06,6.67,15,22.7,18.78,48.34,21,63.66.64,4.34,1.31,8.83,1.89,10.08Z"/><path class="cls-1" d="M107.71,36a4.07,4.07,0,0,1-1.59-.32c-44.69-18.81-84-15.17-84.41-15.13a4.1,4.1,0,0,1-.82-8.15c1.69-.16,41.7-3.92,88.41,15.73A4.1,4.1,0,0,1,107.71,36Z"/><path class="cls-1" d="M33.65,32.87a4.09,4.09,0,0,1-2.9-1.2L18.41,19.33a4.09,4.09,0,0,1,0-5.79L30.75,1.2A4.09,4.09,0,0,1,36.54,7l-9.45,9.45,9.45,9.45a4.09,4.09,0,0,1-2.89,7Z"/><path class="cls-1" d="M117,49.84A11.81,11.81,0,1,1,128.77,38,11.82,11.82,0,0,1,117,49.84Zm0-15.42A3.62,3.62,0,1,0,120.58,38,3.63,3.63,0,0,0,117,34.42Z"/></g></g></svg>