<svg xmlns="http://www.w3.org/2000/svg" viewBox="0 0 114.36 188.65"><defs><style>.cls-1{fill:#26c6da;}</style></defs><title>Asset 4</title><g id="Layer_2" data-name="Layer 2"><g id="图层_1" data-name="图层 1"><path class="cls-1" d="M78.22,117.12l-7.41-3.46,7.82-16.78a5.16,5.16,0,1,0-9.36-4.37l-7.83,16.78L54,105.83l7.83-16.78a13.35,13.35,0,0,1,24.2,11.28Z"/><path class="cls-1" d="M93.7,127.74l-7.42-3.46,7.83-16.78a5.17,5.17,0,0,0-9.37-4.37l-5.21,11.19-7.42-3.46,5.21-11.19A13.35,13.35,0,1,1,101.52,111Z"/><path class="cls-1" d="M20.26,168.4l-7.41-3.46c2.19-4.71,1.09-8.4-1.4-15.63-2.63-7.66-6.24-18.14-5.23-34.75a287.16,287.16,0,0,1,3-29l.52-2.94,3-.4c.59-.07,14.64-1.83,20.8,9.22,1.76,3.14,2,7,1.86,10.75L64.63,39.28a13.35,13.35,0,1,1,24.2,11.28L61.44,109.29,54,105.83,81.41,47.1a5.16,5.16,0,1,0-9.36-4.36L34.88,122.43,31,120a8.68,8.68,0,0,1-3.26-3.51c-1.36-3-1.08-6.92-.79-11,.27-3.73.57-8-.6-10.05-2.18-3.9-6.62-4.91-9.6-5.12-.69,4.95-1.65,13.51-2.33,24.8-.9,15,2.26,24.19,4.8,31.58S24,160.49,20.26,168.4Z"/><path class="cls-1" d="M69.91,188.65l-7.42-3.45c1.16-2.49,4.1-5.44,8.55-9.9,10.25-10.27,27.41-27.45,34.54-51.46,1.62-5.44-.49-6.63-1.39-7.14a9.47,9.47,0,0,0-6.49-.76l-2.37-7.83a17.43,17.43,0,0,1,12.88,1.47c3.25,1.83,8.24,6.42,5.22,16.59-7.72,26-25.8,44.1-36.6,54.92C73.84,184.08,70.46,187.47,69.91,188.65Z"/><path class="cls-1" d="M19.57,35.64l-3.18-7.55c46.72-19.66,86.72-15.9,88.4-15.73L104,20.51C103.59,20.47,64.27,16.83,19.57,35.64Z"/><path class="cls-1" d="M92,32.87a4.09,4.09,0,0,1-2.89-7l9.45-9.45L89.15,7A4.09,4.09,0,0,1,94.93,1.2l12.35,12.34a4.09,4.09,0,0,1,0,5.79L94.93,31.67A4.07,4.07,0,0,1,92,32.87Z"/><path class="cls-1" d="M11.81,46.76A11.81,11.81,0,1,1,23.62,35,11.83,11.83,0,0,1,11.81,46.76Zm0-15.43A3.62,3.62,0,1,0,15.43,35,3.62,3.62,0,0,0,11.81,31.33Z"/></g></g></svg>