<svg xmlns="http://www.w3.org/2000/svg" viewBox="0 0 870.51 930.01"><defs><style>.cls-1{fill:#af947e;}.cls-2{fill:#468158;}.cls-3{fill:#633f31;}.cls-18,.cls-27,.cls-37,.cls-38,.cls-4,.cls-47{fill:none;}.cls-11,.cls-12,.cls-15,.cls-17,.cls-28,.cls-29,.cls-31,.cls-32,.cls-33,.cls-34,.cls-35,.cls-36,.cls-37,.cls-38,.cls-4,.cls-42,.cls-44,.cls-9{stroke:#231916;}.cls-10,.cls-11,.cls-12,.cls-15,.cls-17,.cls-18,.cls-19,.cls-20,.cls-21,.cls-22,.cls-23,.cls-24,.cls-25,.cls-26,.cls-27,.cls-28,.cls-29,.cls-31,.cls-32,.cls-33,.cls-34,.cls-35,.cls-36,.cls-37,.cls-38,.cls-4,.cls-42,.cls-44,.cls-9{stroke-miterlimit:10;}.cls-5{fill:#b1542d;}.cls-6{fill:#cd6b35;}.cls-7{fill:#bb5a2b;}.cls-8{fill:#924322;}.cls-24,.cls-30,.cls-9{fill:#fff3c5;}.cls-10{fill:#004d89;}.cls-10,.cls-18,.cls-19,.cls-20,.cls-21,.cls-22,.cls-23,.cls-24,.cls-25,.cls-26,.cls-27{stroke:#173420;}.cls-11,.cls-19{fill:#fff100;}.cls-12{fill:#799ac7;}.cls-13{fill:#51759c;}.cls-14,.cls-25,.cls-35{fill:#fff;}.cls-15{fill:#a09993;}.cls-16{fill:#2f292e;}.cls-17{fill:#c7e8fa;}.cls-20{fill:#c30f23;}.cls-21{fill:#ea5515;}.cls-22{fill:#6d3f00;}.cls-23,.cls-29{fill:#c07700;}.cls-26{fill:#231916;}.cls-27{stroke-linecap:round;stroke-width:3px;}.cls-28{fill:#94c477;}.cls-31,.cls-48{fill:#e60013;}.cls-32{fill:#f8ccd4;}.cls-33{fill:#fdd000;}.cls-34{fill:#a7d4c5;}.cls-36{fill:#005126;}.cls-37{stroke-dasharray:2.01 2.01;}.cls-38{stroke-width:0.25px;}.cls-39{fill:#005227;}.cls-40{fill:#fff34b;}.cls-41{fill:#3583c6;}.cls-42{fill:#7dcacf;}.cls-43{fill:#aedbd1;}.cls-44{fill:#d77a94;}.cls-45{fill:#db9ca7;}.cls-46{opacity:0.7;}.cls-49{fill:#98c719;}</style></defs><title>Asset 1</title><g id="Layer_2" data-name="Layer 2"><g id="图层_1" data-name="图层 1"><rect class="cls-1" x="56.54" y="455.03" width="810.08" height="27.5"/><rect class="cls-2" x="56.54" width="810.08" height="455.04"/><rect class="cls-3" x="56.54" y="482.54" width="810.08" height="42.62"/><path class="cls-4" d="M120.11,312s19.09,21.1,5.88,94.5-46.81,160-25.12,198.56S162.25,721.68,166.38,749"/><path class="cls-4" d="M95.54,434s20.47,19.76,12.23,93.88-29.38,83.41-5.14,120.43S169.11,744,175.08,771"/><rect class="cls-5" x="245.96" y="543.96" width="449.98" height="164.99"/><polygon class="cls-6" points="713.12 508.51 213.64 508.51 294.64 418.51 644.12 418.51 713.12 508.51"/><rect class="cls-7" x="213.64" y="508.89" width="499.47" height="34.5"/><rect class="cls-8" x="243.64" y="543.39" width="449.98" height="13.5"/><path class="cls-9" d="M449.1,908.68a55.08,55.08,0,0,1-9.35-2c-5.15-1.57-16.8-3-19.82-2-1.46.52-2.71-.89-3.33-2.75a36.34,36.34,0,0,1,1.85-4.77c5.84-12.71-3.17-49.07,1.4-65.13,3.49-12.25,2.72-16.3,2.72-16.3l19.24,1.72S438,868,436,880.37c-2,11.76,10.59,22.39,17.38,23.74C453.52,905.75,455.1,908.37,449.1,908.68Z"/><path class="cls-10" d="M468.71,913.65c-1,4.47-13.17,5.72-21,2.47-4.26-1.76-19.25,3.07-24.74-.36-4.73-3-8.95-5.15-6.32-13.79.62,1.86,1.87,3.27,3.33,2.75,3-1.07,14.67.39,19.82,2a35.17,35.17,0,0,0,10,1.44c5-.12,3.79-2.37,3.62-4a6.31,6.31,0,0,0,1,.14C463.12,904.76,469.74,909.18,468.71,913.65Z"/><path class="cls-11" d="M363.25,751.61s.91,37.11,0,51.77-2.29,23.82,2.29,27,52.42.3,57-2.45l-12.37-83.68"/><path class="cls-10" d="M444.91,922.6c-2.07,4.13-37-.22-43.5-.6-12-.71-12.85-7.64-11.48-17.61l0-.14c4,1.22,11.26,3.18,10.81,5.79-.69,3.94,19.86,5.27,24.91,4.32,4.89-.93,5.28-4.13,5.3-4.31C437.35,910.33,446.78,918.87,444.91,922.6Z"/><path class="cls-9" d="M431,910.05c0,.18-.41,3.38-5.3,4.31-5.05.95-25.6-.38-24.91-4.32.45-2.61-6.83-4.57-10.81-5.79,1.37-10.4,2.72-72.75-.19-84s11.17-1.37,15.63,0c0,0,3.61,74.34,10.4,81s7.81,4.62,13.21,8.23A4.41,4.41,0,0,0,431,910.05Z"/><path class="cls-12" d="M354.37,783.36s4.27-14.78,15.32-13.92,13.55-.51,17.68,1.56,6.88,6.87,9.17,15.57,11.46,21.81,15.81,27.51,11.68,33.65,13.74,39.61,5.37,11,8.76,17.52-7,21.42-17.51,20-40.53-99.11-37.55-104.37c0,0-23.84-.56-25.42-3.52"/><path class="cls-12" d="M378.19,799.6c-5.5,3.78,6.79,22.88,6,34.7s-4.07,15.74-12.82,22c-13.62,9.75-59.45,2.05-59.45,2.05s3.43-10.65.34-25.71-3.09-11.39,2.75-27.89,26.46-23.36,28.06-23.36,23.51,2.24,36.25,4.12c0,0,19.76,0,28.76,68.62.43,3.26,15.07,42.78-1.34,52.25-14.33,8.27-21.29,8.27-21.29,8.27s-8.91,4.3-14,4.3c-7.6,0-38.92-.91-45.44-4.3s-2.41-17.47-.69-24-3.67-26.83-6.08-31.64"/><path class="cls-13" d="M383.29,842.48C376.71,870,319.2,859,319.2,859s-9.66,9.8,57,7c0,0,12.88,5.58,5.6,24.24s-13.62,28.62-10.4,28.66c6.73.07,14-4.3,14-4.3s-1.52.28,2.3-11.46c3.35-10.31,3.2-19,.83-34.06"/><path class="cls-9" d="M463.11,718.86s2.9,15.4,4.55,17.32,5.76,14.63-9.7,24.59a2,2,0,0,1-1.54-1.89s-2.24,3.1-3.27,0c0,0-4.88,1.07-2.7-6.17s-.22-18.39,4.76-27S463.11,718.86,463.11,718.86Z"/><path class="cls-14" d="M322.38,146.19c1,3,6,16,6,16l14-8v8l-20,10-11,13h15.5l-15.5,12,11,14a41.35,41.35,0,0,0,20-19s-13,22,0,28,43,1,48-13,0-16,0-16l-35.5,15v-27s3-5.5,5-5.5,30-2.5,30-2.5l-3.5-14.5h-26l2.5-5.5,15-5-4-12.5-16.5,3-8-16h-12l1,21Z"/><polygon class="cls-14" points="362.38 180.69 365.38 194.19 382.88 187.44 382.88 176.19 362.38 180.69"/><path class="cls-14" d="M392.6,154.19l5.78,22h9s3-19,0-26S392.6,154.19,392.6,154.19Z"/><path class="cls-14" d="M408.72,128.69s15.66,43-4.84,70c0,0,17.5,1.5,18.5,6.5,0,0,16.5-52.5,0-80Z"/><polygon class="cls-14" points="434.38 125.19 436.88 137.69 468.88 131.44 464.38 116.69 434.38 125.19"/><path class="cls-14" d="M451.63,137.69l-2.75,10.17s-13.5.83-14.5,4.83,0,26.5,0,26.5,12.5,6,13,0,1.5-17.16,1.5-17.16h2.75s-.44,34.66-8.84,40.16,15.09,3,15.09,3,6.6-32.83,2.8-43.16c0,0,8.2-5.17,8.2,0v11.66s14,.07,15.5-2,8-30.54-6.5-28-17.2,2-17.2,2v-8Z"/><path class="cls-14" d="M332.38,239.19l-7.5,35s10,6.5,11.5,6,6.5-9.5,6.5-9.5v15.5H352s3.62-17.5,0-23.5-7.61,0-7.61,0,5.5-17,.5-23.5S332.38,239.19,332.38,239.19Z"/><path class="cls-14" d="M336.38,286.19s-10.5,10-7,16.5a24.2,24.2,0,0,0,9.86,9.5l4.64-20Z"/><path class="cls-14" d="M356.88,231.19l-3.28,27h13.28v-13.5l12.5-5.5v11.5s12.45,4,13.22-6,3.78-18.5-4.72-17-21.5,8.61-21.5,8.61S368.88,223.19,356.88,231.19Z"/><polygon class="cls-14" points="355.88 263.69 358.38 276.19 367.38 276.19 362.38 261.25 355.88 263.69"/><path class="cls-14" d="M367.38,256.69s-1,18.5,5,19.5,10.75,3.75,10.25-4.5-4.75-17.75-4.75-17.75Z"/><path class="cls-14" d="M385.63,256.94c0,.79-1.25,9.31,2.75,11.78s5-1.77,6.75-3-2.53-8.75-2.53-8.75S385.69,254.41,385.63,256.94Z"/><path class="cls-14" d="M367.32,280.94s1.81,9,5.31,9,16.75-3.75,16.75-3.75,1.75-4.75,0-6.5S367.32,280.94,367.32,280.94Z"/><path class="cls-14" d="M361.63,287.44s-13,6-12,8,.75,14.75.75,16.75,8.75,4.5,14.25,2.25,31-6.25,33-8.25-.25-18-3-16.25-30,11.45-30,11.45Z"/><path class="cls-14" d="M396.88,280.19s8.25,13.75,7,15.75c0,0,4.25,1.75,6.75-3s2.25-22-4.25-19.25A25.52,25.52,0,0,0,396.88,280.19Z"/><path class="cls-14" d="M427.63,225.94c1.25.75,9,13,9,13s-21.66,1.75-19.83,7.25,2.83,9.63,2.83,9.63l47-8.38c2.91-1.31.25-13.75.25-13.75l-18.75,2.61-9.75-15.11Z"/><path class="cls-14" d="M427.47,261c1.54-2.08,5.41-2.85,8.41-5.22s9.25,6.83,9.25,6.83l-2.25,5.47,7.5-2.43s1.5-12.75,2.5-13,16.12-4.18,13,3.13-2,8.87-2,8.87h17c2,12.5-5.25,14.46-5.25,14.46l-56,5.68-2.94-8.64c-2.19-7,17.25-6.71,17.25-6.71l-5.56-6.83Z"/><path class="cls-14" d="M444.63,286.19v7.75s-16.5,1.25-16.25,5.25,4,11.5,4,11.5l12.25-2.5-1.75,12h18.75v-13l9.5-1.75s5.25-9.25,3.75-13-15.25.25-15.25.25l-2-8.15Z"/><path class="cls-14" d="M480.13,236.94l4,17.25,11-1.5,2.5,5.5h10.75v-4.25h9.75v7.5h11.25l3.75-7.5,12.5,1.88s2.75-5.63,2.5-10.38l-.25-4.75-13.25-1-1-12.17s-7.5-7.58-14-1.83l0,13.06-14.25-.87.22-10.36s-12.25-1.58-12.25,1.92a36.41,36.41,0,0,0,1.35,8.18Z"/><path class="cls-14" d="M500.13,287.44l-13,2.5L487,320.19h44s1.59-30.5.59-30.25-16.25-2.5-16.25-2.5l1.25-4.25h17.25V271.44l-16.5-2v-3.79l-15-1.25v5H487.13v13h15.25l-1.5,5"/><polygon class="cls-2" points="518.97 312.63 496.97 312.63 497.33 298.84 518.97 300.02 518.97 312.63"/><path class="cls-14" d="M566.38,242.86s-8,16.74-8,19.79,28,6.83,28,6.83-4,9.21-18.5,12.71c0,0,16,14.5-25.5,28.5l5.77,13s44.23-2,38.23-33.75c0,0,27.71-4.5,19.21-28.5l-40.21-20.75"/><path class="cls-14" d="M634.88,248.19s-7.72,3.31-9,7.63c-3.79,12.79-16,58.37-14,67.87s22-2.5,23-12,16-53.5,16-53.5S650.88,242.13,634.88,248.19Z"/><path class="cls-14" d="M624.38,333.69H611.64s-1.6-1.5-4.43,7.5,11.67,14,11.67,14Z"/><path class="cls-15" d="M539.17,927.53c-11.58-.91-13.79-13.68-13.07-26.34,4.68,4.54,12.69,8.82,24.16,3.44C551.16,929.9,539.17,927.53,539.17,927.53Z"/><path class="cls-9" d="M550.26,904.63c-11.47,5.38-19.48,1.1-24.16-3.44a130.12,130.12,0,0,1,4.48-25.67C520.28,860.06,511,736.37,511,736.37s32.74.58,32.74,3.79,4.13,145.22,4.13,145.22A130.11,130.11,0,0,1,550.26,904.63Z"/><path class="cls-15" d="M582.22,912.87c-5.49,15.29-17.4,15.58-21.53,5-1.13-2.89-1.57-7.24-1.62-12.11,3.93,2.33,12.1,4.81,21.24-6.15C581.48,906.88,582.22,912.87,582.22,912.87Z"/><path class="cls-9" d="M576.27,880.34a166.84,166.84,0,0,1,4,19.31c-9.14,11-17.31,8.48-21.24,6.15-.18-12.88,2.29-29.46,1.62-32.79-.91-4.58-7.78-131.94-7.78-131.94-.34-6.35,32.06-4.7,32.06-4.7C592.3,783,573.06,869.81,576.27,880.34Z"/><path class="cls-16" d="M554.79,337.88s-41-29.75-59.52,28.43c-16.44,51.64-17,46.75-19.78,66s-11,56.35,0,70.1,81.08,1.37,81.08,0,16.58,28.86,39.21,20.61,36.38-15.12,35-44S597.32,292.38,554.79,337.88Z"/><path class="cls-17" d="M563.1,477.11c39.51,6.33,48.79,29.06,35.24,60.33s-7.41,56.69-7.41,56.69C606.38,671.75,605.3,740,605.3,740h0c-32.21,14.83-111.6,2.91-111.6,2.91-2.41-2.41-.07-76.82,4.12-94.83S506.41,490,510.07,485.22s24.51-8.11,24.51-8.11Z"/><path class="cls-4" d="M457.1,735.35s.69,11,.69,12.09.86,2,3.26,0,5.33-5.87,5-7.69"/><path class="cls-4" d="M459.65,750c0,.69-1.86,3.1-2.55,5.85a12.24,12.24,0,0,0-.59,3.34"/><path class="cls-18" d="M308.28,919l0,.13v0"/><path class="cls-9" d="M181.8,738c0,2.11-1.69,77.76,0,94.16s2.43,65,2.43,65,4.57,12.88,20.26,3.4c8.49-5.12-.42-13,0-22.69s3.37-68.42,4.21-74.31.28-66,2.24-69.77-29.89,0-29.89,0Z"/><path class="cls-19" d="M183.54,867.17s12.12,7.28,21.58,0c0,0-2.33,14.74,1.13,18.75,0,0,.17,12.29-20.06,9,0,0-1.61-.26-2.06-3.48S183.54,867.17,183.54,867.17Z"/><path class="cls-9" d="M275.94,738c0,.41,1.9,75.65,0,94.16-1.68,16.39,0,60.85,0,60.85s6.76,10.09-22.7,7.56c-16.55-1.41-2.45-15.14,0-22.69,3-9.2-3.36-68.42-4.2-74.31s-.28-66-2.24-69.77,29.89,0,29.89,0Z"/><path class="cls-18" d="M251.83,883.15s.15,8.78,8.77,11.3,14.18.22,15.23-3.36c0,0,1,.85.86,8.62"/><path class="cls-19" d="M275.2,867.2s-11.7,7.28-21.16,0c0,0,.52,12.11-5.71,19.83,0,0,3,11.21,23.22,7.88a5.4,5.4,0,0,0,3.65-4.17C275.65,887.52,275.2,867.2,275.2,867.2Z"/><path class="cls-20" d="M218.77,923.83a7.45,7.45,0,0,1-3.55,4.36c-7.85,4.6-25.94-4-28.69-8.8a17,17,0,0,1-1.44-5.45C190.51,920,203.81,931.87,218.77,923.83Z"/><path class="cls-21" d="M218.77,923.83c-15,8-28.26-3.87-33.68-9.89-1.11-7.86-.82-20.12-.82-20.12,2.92-4,22.23-9.7,22.23-7.29s3.72,16.26,6.48,20C214.71,908.93,220.64,917.63,218.77,923.83Z"/><path class="cls-21" d="M219.13,923.63l-.36.2"/><path class="cls-21" d="M307.81,920.54c-2.06,1.72-13.55,3.09-25.76,0-23.25-5.89-31-.83-35.74-2.77-1.33-.54-2.9-4.33-2.51-2.93.2.68-1.24-3.6-.27-13.89,1-11,5.14-13.87,5.14-13.87C275,903.91,275.39,885.5,276,886s-3.46,12.44,13.28,19.17c13.64,5.47,18.74,11.13,19.05,14v0A1.56,1.56,0,0,1,307.81,920.54Z"/><path class="cls-20" d="M278.74,924c-4.25-1.6-6.68-2.41-18.58-2.48-6.06,0-15.79,3.28-16.51-2.55a10.46,10.46,0,0,1,.15-4.11,4.18,4.18,0,0,0,2.51,2.93c4.76,1.94,12.49-3.12,35.74,2.77,12.21,3.09,23.7,1.72,25.76,0a1.56,1.56,0,0,0,.5-1.43C310.56,930.7,282.77,925.51,278.74,924Z"/><path class="cls-22" d="M173.81,704s-2.94,60.27,3.78,65.87,36,10.36,40.2,1.95,10.55-24.33,10.55-24.33,7.68,21,9.78,24.48,37,7.71,42.87-5.6-.42-64.47,0-62.37S215,728.48,173.81,704Z"/><path class="cls-23" d="M188.6,705.39s-4.06,22.34-15.41,24.66l.16,7s15.25-3.46,20.36-26.39Z"/><path class="cls-23" d="M268.1,705.39s4.06,22.34,15.42,24.66l-.17,7S268.1,733.56,263,710.63Z"/><path class="cls-9" d="M157,616.81s-18,62.28-6.87,109c5.33,22.41-.77,30.87-2.62,35.45s3.65,13.75,11,13.75,5.35,1.29,8.25,2.21,6.06,6,6.47.54-2.3-18.79-2.3-18.79,5,2.55,6.52,4c.93.9,4,1,4-.14s-5.41-15.36-8.2-17.19-14.63-32.58-5.52-69.71,7.49-47.86,6.47-49S157,616.81,157,616.81Z"/><path class="cls-9" d="M299,625.53s21,63.46,9.84,110.15c-5.33,22.41-.36,25.17.34,30.06s1.53,6.3-4.64,11.85c-5.52,5-5.41,2.52-8.3,3.44s-6.38,7.5-7.66,2.14c-2.25-9.36-.18-8.4.54-17.88a36.42,36.42,0,0,0-5.1,3c-.92.79-3.62,1.18-3.63,0s.23-11.26,3-13.09,16.36-39.72,10.7-73.81c-6.25-37.72-10.68-45.09-9.67-46.21S299,625.53,299,625.53Z"/><path class="cls-22" d="M292.61,592.46c0,11.93-27.28,21.59-61,21.59s-60.95-9.66-60.95-21.59,27.29-20.07,60.95-20.07S292.61,580.54,292.61,592.46Z"/><path class="cls-9" d="M204.86,554c-8-1.83,15.94,24.24-5.41,34.09,0,0,5,18.8,31.33,21.75s33.1-20.34,33.1-20.34-25.47-7.92-3.1-35.5C260.78,554,243.49,562.89,204.86,554Z"/><path class="cls-9" d="M285.2,501.8c0,35.17-26.05,63.68-58.18,63.68S168.84,537,168.84,501.8s26-63.68,58.18-63.68S285.2,466.63,285.2,501.8Z"/><path class="cls-24" d="M170.48,512.13s-21.89-.38-15.78,14,7.49,10.08,11.7,11,3.79,2.82,6.2,4.74c3.56,2.84,10.84,1.55,9.54-.41S171,524,170.48,512.13Z"/><path class="cls-24" d="M284.65,496.76s18.89-3.67,15.64,10.44c-2.75,11.93-3.68,10.59-7.59,12.43s-2.91,5.25-3.76,6.68c-2.65,4.44-10.26,3.83-9.41,1.64S286.68,508.47,284.65,496.76Z"/><path class="cls-25" d="M215.55,535s13.74,10,30.46-1.33C246,533.68,232.58,560.55,215.55,535Z"/><path class="cls-26" d="M206.34,513.36c0,2.32-1.52,4.21-3.4,4.21s-3.41-1.89-3.41-4.21,1.53-4.22,3.41-4.22S206.34,511,206.34,513.36Z"/><path class="cls-26" d="M256.62,506.52c0,2.32-1.53,4.21-3.41,4.21s-3.4-1.89-3.4-4.21,1.52-4.21,3.4-4.21S256.62,504.19,256.62,506.52Z"/><path class="cls-27" d="M191.91,497.36s5.5-6.42,17.87,0"/><path class="cls-27" d="M258.48,489.25s-6.88-4.91-17.35,4.29"/><path class="cls-22" d="M189.06,424.61s-57,27-32.53,77.19c4.35,8.93,14.51,18.38,15.49,18.62s12.64-43,19.89-49.29c17.87-15.46,92.83,9.14,93.29,30.67,0,0,11.24-31.36,6.2-46.48s-51.72-50.18-87.23-35.52c0,0,18.79-6.65,25.66-6S203,409.72,189.06,424.61Z"/><path class="cls-28" d="M199.45,588.12s-32,2.76-51.79,38.88c0,0,8.41,17.9,25.75,23.25.44.13,1.08-10.28,1.08-10.28s-9.93,61.16-5.16,66.48,62.33,25.18,114.32,2c0,0,5.33-56,0-68.37,0,0,1.49,10.9,3.21,11.76,1.46.73,28.16-12.41,19.75-26.92,0,0-26.26-40.74-42.73-35.35,0,0-22.72,40-60.75,3.59C203.13,593.12,199.86,589.7,199.45,588.12Z"/><path class="cls-29" d="M480.91,547c-7.32-20.26-16.62-47.09-26.24-55.33s-23.36-9.62-26.11-17.87-7.79-7.78-7.79-7.78,5.34,4.54,5.27,10.42c-.07,4.52-.69,3.32-.69,3.32s-8.25-18-26.11-9.7-31.61,14.28-37.11,41.31S347.47,532,342.89,548.92s1.37,32.76-3.66,37.22,10.07,20.37,19.69,19.06,13.74,3.27,19.7,4.19,82,16.94,89.33-19.24c0,0,9.29,6.15,12.5-13.54S488.25,567.24,480.91,547Zm-72.67,55c-24.44,0-44.36-21.24-45.18-47.78a58.67,58.67,0,0,0,4.06-5.75c9.55-15,25-5,43.8-21.11,8.88-7.63,13.25-14.77,15.4-20.18,2.38-6,2-9.9,2-9.9s1.32,5.49,3.86,13.28c4.07,12.49,11.29,30.9,21.26,42.22C453.32,580,433.13,602,408.24,602Z"/><path class="cls-9" d="M453.44,552.8C453.32,580,433.13,602,408.24,602c-24.44,0-44.36-21.24-45.18-47.78a58.67,58.67,0,0,0,4.06-5.75c9.55-15,25-5,43.8-21.11,8.88-7.63,13.25-14.77,15.4-20.18a42.62,42.62,0,0,1,5.86,3.38C436.25,523.07,443.47,541.48,453.44,552.8Z"/><path class="cls-30" d="M453.44,552.8C453.32,580,433.13,602,408.24,602c-24.44,0-44.36-21.24-45.18-47.78a58.67,58.67,0,0,0,4.06-5.75c9.55-15,25-5,43.8-21.11,8.88-7.63,13.25-14.77,15.4-20.18,2.38-6,2-9.9,2-9.9s1.32,5.49,3.86,13.28C436.25,523.07,443.47,541.48,453.44,552.8Z"/><path class="cls-31" d="M418.78,829.71s35.4-1.59,35.4-8-6.87-74.31-6.87-74.31l-54.51,1.18"/><path class="cls-18" d="M455.21,751.61s-2.89,6-2.06,7.27"/><path class="cls-18" d="M431,910.05h0"/><path class="cls-26" d="M391.48,559.76c0,2.33-1.52,4.22-3.41,4.22s-3.4-1.89-3.4-4.22,1.52-4.21,3.4-4.21S391.48,557.44,391.48,559.76Z"/><path class="cls-26" d="M434.94,557.75c0,2.32-1.52,4.21-3.4,4.21s-3.41-1.89-3.41-4.21,1.53-4.22,3.41-4.22S434.94,555.42,434.94,557.75Z"/><path class="cls-27" d="M375,547.57s8.93-9.05,17.87,0"/><path class="cls-27" d="M441.54,544.51s-6.88-10-17.35-.76"/><path class="cls-27" d="M395.77,580s15.76,12.76,23.71-3.38"/><path class="cls-32" d="M399.21,606.85S376.34,603,363,630.37s-22.24,95.36-20.18,101.54c0,0,19.74-1.39,20.18,4.46.54,7.29-7.28,15.42-8.5,20.28-.69,2.75,52.88,9.62,76.26,4.12s13.57-3.81,23.38-5.49c9.63-1.65-4.81-27.49,0-27.49,1.15,0,3.67-.69,9.85-3.66s6.42-.92,6.87-4.36-2.74-11-6.64-18.32c0,0-4.85-23.73-6.3-43.75C456.59,638.77,452.47,607.88,399.21,606.85Z"/><path class="cls-30" d="M392.06,593.31c-5.07-1.16,9.71,9.51-3.85,15.77,0,0,3.28,20.52,20,22.39s22.56-19.08,22.56-19.08-17.43-1.56-3.23-19.08C427.57,593.31,416.6,598.94,392.06,593.31Z"/><path class="cls-12" d="M345.61,764.9c0,.68-2.06,18.32-2.06,18.32h9.39l-2.29-20.37Z"/><path class="cls-4" d="M370.53,877.37c0,11.89,0,21.53-16.24,21.53s-16.24-9.64-16.24-21.53Z"/><path class="cls-4" d="M361.39,860.06l.65,9.69s.69,2.74,4.35,2,1.6-14.2,1.6-14.2Z"/><path class="cls-9" d="M346.18,731.78s-11.11,28.54-7.21,32.89,15.57,8,18.55,3.43a5.91,5.91,0,0,0,7.33.23s-2.06-8.24-4.35-7.56c0,0-2.75-9.39,6.18-9.16h.92s.19-5-4.7-11.22c-4.71-6-6-2-2.91-7.07C360.66,732.19,346.5,731.24,346.18,731.78Z"/><path class="cls-12" d="M360.5,760.77s1.82-5.49,7.33,18.79l-.48,4.38s12.27.71,11.93,1.57c-.21.52-7.82-36.72-14.87-33.71C357.57,754.72,360.61,758.38,360.5,760.77Z"/><path class="cls-4" d="M336,860.93v9.69s.69,2.74,4.35,2,1.93-11.49,1.93-11.49Z"/><path class="cls-33" d="M527.71,582.47c1.4,40.11,1.66,80.77-2.75,84.85,0,0-32.3,2.06-37.79-4.12s12.1-46.72,14.17-52.9c.91-2.7.15-14.6-1.44-26.67A240.43,240.43,0,0,0,527.71,582.47Z"/><path class="cls-33" d="M464.65,552c3.29-19.64,11.63-44.62,22.52-55C505,480,532.23,476,532.23,476l-3.29,26.83a320.54,320.54,0,0,0-2.2,55.55c-12.39-.35-26.8-.58-32.79-1.58-.89-1.7-2.21-1.1-3.08-.23"/><line class="cls-34" x1="491.29" y1="555.31" x2="464.36" y2="553.84"/><path class="cls-33" d="M572.13,475.28s35.55,7.42,40.79,22.75,16,87.83,18,98.13,0,39.17,0,39.17H612.23s-15-43.6-16.45-79.18c0,0-8.28,17.34-4.85,29.71s16.49,71.46,15.12,78.33c0,0-26.8,9.6-34.36,4.46S557,520.25,567.32,503.08C567.32,503.08,565.94,500.4,572.13,475.28Z"/><path class="cls-35" d="M569.63,506.52v8.54a354.23,354.23,0,0,1-35.85,1.52c-25.14,0-45.53-1.77-45.53-4l52.06-3.91Z"/><path class="cls-36" d="M569.63,515.06v83.2L495.07,602l-6.82-89.39c0,2.18,20.39,4,45.53,4A354.23,354.23,0,0,0,569.63,515.06Z"/><path class="cls-9" d="M544.55,562.87s6-9.23,10.39-11.94c6.18-3.78,14.56-4.86,16.41-3.18s1.67,7.07,3.09,7.5c1.59.49,2.1,5.55,1.66,7.24-.17.64-.9,1.14-.63,2.09.78,2.75-.75,6.45-1.37,7.23-1.38,1.71-1.38,9.42-29.55.76A19,19,0,0,1,544.55,562.87Z"/><path class="cls-30" d="M530.9,455c-5.39-1.24,14.43,14.65,0,21.3,0,0-.6,17.31,17.22,19.31s24-20.31,24-20.31-18.55-1.66-3.44-20.3C568.69,455,557,461,530.9,455Z"/><path class="cls-30" d="M591.66,409.41c0,29.33-19.69,53.1-44,53.1s-44-23.77-44-53.1,19.69-53.1,44-53.1S591.66,380.08,591.66,409.41Z"/><path class="cls-26" d="M531.48,409.41c0,2.33-1.52,4.21-3.4,4.21s-3.41-1.88-3.41-4.21,1.53-4.21,3.41-4.21S531.48,407.08,531.48,409.41Z"/><path class="cls-26" d="M574.94,407.39c0,2.33-1.52,4.21-3.4,4.21s-3.41-1.88-3.41-4.21,1.53-4.21,3.41-4.21S574.94,405.06,574.94,407.39Z"/><path class="cls-27" d="M515,397.28s8.93-9,17.87,0"/><path class="cls-27" d="M581.6,394.22s-6.88-10-17.35-.76"/><path class="cls-25" d="M538.61,437.83s13.5,4.61,23-1.67C561.61,436.16,553.82,457.56,538.61,437.83Z"/><line class="cls-34" x1="464.69" y1="553.86" x2="491.29" y2="555.31"/><path class="cls-33" d="M491.29,555.31c-.63.62.44,1.1,2.66,1.46,6,1,20.4,1.23,32.79,1.58,11,.31,20.39.7,20.94,1.77,1.42,2.75,0,17.87,0,17.87-3.89,2-11.22,3.53-20,4.48a240.43,240.43,0,0,1-27.81,1.16c-16.55-.24-31.53-2.13-34.72-5.64-2.56-2.82-2.36-14.18-.53-26l.85-4.66"/><path class="cls-4" d="M363,736.37s14.25-32.48,11.59-63.28"/><path class="cls-32" d="M442.89,658.38s2.7,44.3,7,56.86S453,727,453,729"/><path class="cls-18" d="M154.39,766s1,8.91,3.54,9"/><path class="cls-9" d="M160.23,763.22s-.34,9.61,2.29,11.74"/><path class="cls-9" d="M166,763.22s-1.1,11.13,1.1,14.16"/><path class="cls-4" d="M347.21,752.79c-.17,1.34-6.49,11.91-3.66,15.12"/><path class="cls-4" d="M352.87,757s-4.75,8.44-2.09,13.16"/><path class="cls-9" d="M293.86,767.91s2.66,10.08,0,14.68"/><path class="cls-9" d="M299.41,766.63s3.4,9.58,0,14.2"/><path class="cls-9" d="M305.54,764.38s1,11.38-1,13.21"/><path class="cls-35" d="M391.47,607.21s6.57,12.49,15.29,17.85S398.08,646.4,394.58,642s.5-11.33-2.8-12.9C388.21,627.38,370.27,607.31,391.47,607.21Z"/><path class="cls-35" d="M430,612.28s-8.45,10.87-18.13,14.17,5.43,19.77,7.6,19.25c7.54-1.82,3.56-11.59,6.73-13.42S450.68,617.05,430,612.28Z"/><path class="cls-4" d="M384.43,842.48c.1,0,.33.24.66.72"/><path class="cls-37" d="M386.13,844.93a65.32,65.32,0,0,1,6.43,19.86c2.38,15.12,2.85,25.68-.5,36-1.71,5.23-2.69,8.07-3.26,9.62"/><path class="cls-4" d="M388.44,911.35c-.38.95-.42.9-.42.9"/><path class="cls-9" d="M560.09,556.89c1.53.43,10.91-.3,13.43-2.35"/><path class="cls-9" d="M561.62,564.15c2,0,11.73.91,14.72-1.52"/><path class="cls-9" d="M560.09,571c1.41-.14,11.28,2.53,14.46,0"/><path class="cls-17" d="M411.12,650.94a2.75,2.75,0,1,1-2.83-2.67A2.75,2.75,0,0,1,411.12,650.94Z"/><path class="cls-17" d="M411.76,672.46a2.75,2.75,0,1,1-2.84-2.67A2.75,2.75,0,0,1,411.76,672.46Z"/><path class="cls-35" d="M529.5,477.49s5.79,16.61,17.45,17.35c1.36.08-8.59,11.68-20.79,7.21S512.09,481.7,513,481.35,528.42,475.68,529.5,477.49Z"/><path class="cls-35" d="M572,476s-6,18.13-17.62,18.87c-1.36.08,8.59,11.68,20.79,7.21s14.28-21.59,13.35-21.94S573,474.16,572,476Z"/><line class="cls-38" x1="499.43" y1="512.63" x2="565.03" y2="508.8"/><path class="cls-38" d="M497.37,512.63s62.85-1,67.55-1.92"/><path class="cls-38" d="M496.21,513.79s65,1.5,70.6-1.16"/><path class="cls-39" d="M197.8,612.72c6.1,8.66,16.51,14.49,27.29,13.55a23,23,0,0,0,6.37-1.57,28.08,28.08,0,0,1,10.36-2.12,22.09,22.09,0,0,0,14.83-5.33c.62-.51-.27-1.39-.89-.88-5.4,4.5-10.23,4.58-16.89,5-4.17.24-7.48,2.54-11.5,3.36-10.93,2.24-22.29-3.8-28.49-12.6-.46-.65-1.54,0-1.08.63Z"/><path class="cls-39" d="M158.71,611.9c7,1.71,10.24,8.94,15.54,13.22,6.36,5.16,13.89,5.22,21,8.71,5.83,2.88,9.89,8.39,16,10.88,5.52,2.26,10.45.95,15.45-1.86,3.84-2.16,7.37-4.36,11.92-4.68s8.92.79,13.25,1.84c6.48,1.58,13.12,3.23,19.7,1.12,5.8-1.86,9.09-6.26,13.1-10.51,5.2-5.49,12.32-5.58,18.57-9.12a.63.63,0,0,0-.63-1.08c-5.13,2.91-11.59,3.1-16.27,6.87-5.29,4.27-8.21,10.4-15.1,12.63-14.21,4.61-27.77-7.72-41.83-.1-3.13,1.7-6,3.89-9.61,4.61-4.58.92-8.82-.82-12.55-3.37-5.21-3.56-9.14-7.82-15.3-9.82-7.83-2.55-14.71-4.18-20.45-10.55-3.67-4.08-6.78-8.63-12.41-10-.78-.19-1.12,1-.33,1.21Z"/><path class="cls-39" d="M174.2,653.25c9.85-.76,17.06,7,26.54,8,4.89.51,9.77-1,14.48-2.08a34.45,34.45,0,0,1,19.42.89c10.08,3.24,18.39,4.87,28.47.47,5.81-2.53,10.77-6.64,17.49-5.84,3.75.45,5.9.58,8.71-2.29.57-.57-.32-1.46-.88-.88-3.76,3.84-9.24,1-14,2.32-5.36,1.45-9.87,5-15.13,6.83a27.89,27.89,0,0,1-16.13.66c-5.31-1.31-10.37-3.68-15.82-4.39-9.86-1.29-19.23,4.83-29,2.64-8.49-1.92-15-8.29-24.13-7.58-.79.06-.8,1.31,0,1.25Z"/><path class="cls-39" d="M168.43,673.73c6.74,7,14.61,9.91,24.3,8.64,5.46-.71,11-2.06,16.52-1.8,5.81.27,10.79,2.86,16,5.26,9.1,4.21,18.15,3.85,27.54.84,10.43-3.35,20.18-8.23,31.45-7.42.8.06.79-1.19,0-1.25-9.69-.7-18.42,2.68-27.36,5.93-11.43,4.14-21.31,5.3-32.61,0-7.68-3.59-14.06-5.21-22.54-4.15-5.32.66-10.66,2-16,1.6-6.59-.49-11.85-3.89-16.35-8.56-.55-.58-1.44.3-.88.88Z"/><path class="cls-39" d="M169.22,696.5a43.77,43.77,0,0,0,26.43,8.92c10.07.16,20-1.87,30.11-2.13,19.45-.51,41,7.14,58.76-4.06.68-.43.05-1.51-.63-1.08-17.49,11-38.95,3.38-58.13,3.89-19.66.52-38.73,6.35-55.91-6.62-.64-.49-1.26.6-.63,1.08Z"/><path class="cls-23" d="M189.22,577.28s-5.6,3.17-9.25,23.16-7.84,22.71-2,29.68,15.69.3,16.54-4.85S214.16,573.49,189.22,577.28Z"/><path class="cls-22" d="M180.81,624.66s-.33,18.15-5.11,25.65c-2.89,4.55-3.86,5.33-3.86,5.33l-1.35,12.55s14.95-7.94,17-39.44c0,0-2.07-7.07-6.59-4.69"/><path class="cls-23" d="M267.27,575.39s5.93,5,9.58,25,5.82,24.27-.06,31.23-16,1-16.85-4.13S242.33,571.6,267.27,575.39Z"/><path class="cls-22" d="M274.61,624.66s3.08,20.07,7.85,27.56c2.9,4.55,3.8,4.1,3.8,4.1L286,669.2s-16-9-18.07-40.45c0,0,2.07-7.07,6.58-4.69"/><path class="cls-14" d="M372.67,703.89s33.58,26.49,74.47-1.78l1.63,8.46s-25.28,24.78-77.9,1.47C370.87,712,372.81,709.49,372.67,703.89Z"/><path class="cls-14" d="M369.6,718.71s35.39,24.84,80.29,0l2.77,5.52s-29.19,26-85.53,1.09l1.87-5.89"/><polygon class="cls-40" points="507.74 132.48 547.75 78.36 497.2 66.01 507.74 132.48 547.75 78.36 497.2 66.01 507.74 132.48"/><polygon class="cls-41" points="570.17 147.74 610.18 93.63 559.63 81.27 570.17 147.74 610.18 93.63 559.63 81.27 570.17 147.74"/><path class="cls-42" d="M62.16,359.57s-30.66-40.48-54-7C-29.46,406.54,83.7,430,85,430.42c5.63,1.62,26.71-2.22,24.86.36-3.53,4.94-25.36,12.31-25.36,12.31s34.89-43.9,31.44-84.52C113.79,333.31,80.16,302.57,62.16,359.57Z"/><path class="cls-43" d="M70.49,346.57s-3.5,9.5,4,6,15.76-11.24,20.26-4.74,5.74,16.74,3.24,32.24a283.13,283.13,0,0,1-6,28s3.34,9.66,11-13,8.76-67.79-17-62.23C86,332.84,74,339.07,70.49,346.57Z"/><path class="cls-43" d="M26,349.24c12.19-13,35.94,11.89,28.67,14.67-3.5,1.33-10.84-8.62-17.59-10.25a34.87,34.87,0,0,0-9.75-.42S23.57,351.82,26,349.24Z"/><path class="cls-44" d="M93.76,239.63s-20.88-26-41-.93C20.34,279.1,108,300,109,300.38c4.33,1.57,21.07,3.23,19.49,5.16-3,3.69-20.59,8.33-20.59,8.33s20.4-33.87,29.19-64.74C144.54,223.13,110.93,195.79,93.76,239.63Z"/><path class="cls-45" d="M102.36,231.59s-3.25,7.28,2.83,4.93,13-8,16.17-2.65,3.62,13.46.83,25.51a156.79,156.79,0,0,1-4.73,17.23s2.35,7.5,9.58-9.9,8.76-48.09-11.76-45.08C115.28,221.63,105.51,225.89,102.36,231.59Z"/><path class="cls-45" d="M68.54,234.19c13.08-9.5,27.2,10.64,21.34,12.44-2.82.86-6.87-5.79-12.09-7.44-3.18-1-8.11,0-8.11,0S66.28,235.83,68.54,234.19Z"/><g class="cls-46"><path class="cls-14" d="M255.87,326c2.14,6-.34,11.84-.05,17.93.08,1.6,2.58,1.61,2.5,0-.3-6.36,2.2-12.36,0-18.59-.54-1.5-3-.85-2.41.66Z"/><path class="cls-14" d="M265.75,336.28c4.61-1,9.24-1.81,13.64.39,1.44.72,2.7-1.43,1.26-2.16-5-2.53-10.23-1.81-15.56-.64-1.58.34-.91,2.75.66,2.41Z"/><path class="cls-14" d="M275.89,322.2c-5,7.16-6.76,14.8-4,23.22.5,1.52,2.91.87,2.41-.66-2.55-7.85-.88-14.64,3.77-21.3.92-1.33-1.25-2.58-2.16-1.26Z"/><path class="cls-14" d="M288.42,330c0,5.07-.42,10.25.31,15.29.23,1.58,2.64.91,2.41-.67-.69-4.79-.23-9.8-.22-14.62a1.25,1.25,0,0,0-2.5,0Z"/><path class="cls-14" d="M306.1,340c3.38,0,6.93.17,10.25-.56,1.57-.35.9-2.76-.67-2.41-3.08.68-6.44.47-9.58.47a1.25,1.25,0,0,0,0,2.5Z"/><path class="cls-14" d="M306.1,346.23a102.32,102.32,0,0,0,12,.52,1.25,1.25,0,0,0,0-2.5,102.32,102.32,0,0,1-12-.52c-1.59-.18-1.58,2.32,0,2.5Z"/><path class="cls-14" d="M329.22,333.37c5.13-.19,5.72,4,4.16,8a17.81,17.81,0,0,1-9.94,9.9c-1.2.48-1.2,2.55.34,2.45,5.06-.29,10.13.19,15.2.14a1.25,1.25,0,0,0,0-2.5c-5.07.05-10.14-.43-15.2-.14l.33,2.46c5.93-2.38,11.19-7.61,12.39-14.08,1-5.21-1.9-9-7.28-8.76-1.61.06-1.62,2.56,0,2.5Z"/></g><path class="cls-47" d="M807.53,5.38,792.06,56.22,765.83,8,744.32,9.5l-16.2,53.23-27.24-50-20,1.55-16.75,55L636.22,17.88l-18.87,1.61L600.23,75.75,571.81,23.54l-18.16,1.67L536.28,82.26,507.63,29.61q-8.88.86-17.81,1.75L472.34,88.77,443.65,36.06l-17.8,1.87L408.4,95.28,379.89,42.9l-18.13,2-17.31,56.87L316.34,50.14l-18.8,2.22-17,55.94L253,57.8Q243,59,233.16,60.3l-16.6,54.51L190,65.94q-10.83,1.44-21.36,2.89l-16,52.49L127.21,74.65q-11.94,1.72-23.39,3.43L88.87,127.19c101.26-5.09,236.27-15.64,384.26-30.7S755.48,64.54,855.68,49.11L831.14,4Q819.59,4.66,807.53,5.38Z"/><path class="cls-40" d="M64.86,84.08l23.48,43.13.53,0,14.95-49.11Q83.5,81.11,64.86,84.08Z"/><path class="cls-41" d="M168.6,68.83q-21.36,2.92-41.39,5.82l25.41,46.67Z"/><path class="cls-48" d="M233.16,60.3Q211,63.14,190,65.94l26.6,48.87Z"/><path class="cls-49" d="M297.54,52.36Q274.85,55.08,253,57.8l27.49,50.5Z"/><path class="cls-40" d="M361.76,44.92q-23.06,2.59-45.42,5.22l28.11,51.65Z"/><path class="cls-41" d="M425.85,37.93q-23.25,2.46-46,5L408.4,95.28Z"/><path class="cls-48" d="M489.82,31.36l-23.09,2.33q-11.6,1.17-23.08,2.37l28.69,52.71Z"/><path class="cls-49" d="M553.65,25.21q-22.73,2.12-46,4.4l28.65,52.65Z"/><path class="cls-40" d="M617.35,19.49q-22.41,1.94-45.54,4.05l28.42,52.21Z"/><path class="cls-41" d="M680.92,14.23Q659,16,636.22,17.88l27.95,51.36Z"/><path class="cls-48" d="M744.32,9.5Q723.14,11,700.88,12.68l27.24,50.05Z"/><path class="cls-49" d="M807.53,5.38Q787.36,6.58,765.83,8l26.23,48.2Z"/><path class="cls-40" d="M831.14,4l24.54,45.08.53-.08,14.3-47Q851.69,2.9,831.14,4Z"/></g></g></svg>